<?xml version="1.0" encoding="UTF-8" standalone="no"?>
<!-- Created with Inkscape (http://www.inkscape.org/) -->
<!DOCTYPE svg PUBLIC "-//W3C//DTD SVG 1.1//EN" "http://www.w3.org/Graphics/SVG/1.1/DTD/svg11.dtd">
<svg
   xmlns:svg="http://www.w3.org/2000/svg"
   xmlns="http://www.w3.org/2000/svg"
   version="1.1"
   width="400"
   height="195"
   id="svg2816"
   xml:space="preserve"><defs
     id="defs2820" /><g
     transform="matrix(1.25,0,0,-1.25,0,194.99998)"
     id="g2826"><g
       transform="matrix(3.574251,0,0,3.574251,-507.82018,-2462.2394)"
       id="g4301"><path
         d="m 178.50897,707.54047 0.77684,0 1.75858,-3.20981 0.0121,0 0,3.20981 0.57087,0 0,-3.98701 -0.73086,0 -1.80527,3.27751 -0.011,0 0,-3.27751 -0.57123,0 0,3.98701 z"
         id="path3006"
         style="fill:#039;fill-opacity:1;fill-rule:nonzero;stroke:none" /><path
         d="m 184.31745,704.68361 c 0,-0.43384 -0.2801,-0.76488 -0.81141,-0.76488 -0.24481,0 -0.54272,0.1657 -0.54272,0.47393 0,0.51403 0.71983,0.56001 1.01204,0.56001 0.11366,0 0.22698,-0.0114 0.34209,-0.0114 l 0,-0.25766 z m -1.56544,1.12038 c 0.21666,0.18244 0.54272,0.29611 0.84526,0.29611 0.53736,0 0.72018,-0.25656 0.72018,-0.75972 -0.21131,0.0114 -0.35992,0.0114 -0.57158,0.0114 -0.5534,0 -1.35342,-0.22772 -1.35342,-0.95912 0,-0.63323 0.44009,-0.90833 1.06835,-0.90833 0.49104,0 0.77646,0.2694 0.90227,0.44614 l 0.011,0 0,-0.37701 0.50316,0 c -0.0118,0.0859 -0.0232,0.23983 -0.0232,0.57158 l 0,1.20428 c 0,0.79358 -0.33675,1.20552 -1.17097,1.20552 -0.3713,0 -0.69095,-0.11367 -0.95928,-0.27474 l 0.0281,-0.45612 z"
         id="path3008"
         style="fill:#039;fill-opacity:1;fill-rule:nonzero;stroke:none" /><path
         d="m 187.31005,706.03239 -0.77149,0 0,-1.59341 c 0,-0.33746 0.20633,-0.52025 0.45149,-0.52025 0.16607,0 0.28579,0.0517 0.36561,0.10297 l 0,-0.45718 c -0.12008,-0.0342 -0.28508,-0.0802 -0.45683,-0.0802 -0.55412,0 -0.89658,0.26298 -0.89658,0.84633 l 0,1.70173 -0.65709,0 0,0.43369 0.65709,0 0,0.67491 0.53631,0.17034 0,-0.84525 0.77149,0 0,-0.43369 z"
         id="path3010"
         style="fill:#039;fill-opacity:1;fill-rule:nonzero;stroke:none" /><path
         d="m 188.05268,703.55346 0.53702,0 0,2.91262 -0.53702,0 0,-2.91262 z m 0.57158,4.16909 -0.60614,0 0,-0.60508 0.60614,0 0,0.60508 z"
         id="path3012"
         style="fill:#039;fill-opacity:1;fill-rule:nonzero;stroke:none" /><path
         d="m 189.94846,705.00969 c 0,0.55375 0.3371,1.09041 0.91402,1.09041 0.57087,0 0.90833,-0.53666 0.90833,-1.09041 0,-0.51993 -0.27973,-1.09096 -0.90833,-1.09096 -0.63358,0 -0.91402,0.57103 -0.91402,1.09096 z m -0.57089,0 c 0,-0.83298 0.6051,-1.52536 1.48491,-1.52536 0.87377,0 1.4792,0.69238 1.4792,1.52536 0,0.88552 -0.59368,1.52515 -1.4792,1.52515 -0.89087,0 -1.48491,-0.63963 -1.48491,-1.52515 z"
         id="path3014"
         style="fill:#039;fill-opacity:1;fill-rule:nonzero;stroke:none" /><path
         d="m 193.06222,706.46608 0.51919,0 0,-0.46256 0.011,0 c 0.16,0.33141 0.54878,0.53132 0.95395,0.53132 0.75402,0 1.09148,-0.46858 1.09148,-1.25113 l 0,-1.73025 -0.53771,0 0,1.50719 c 0,0.67989 -0.14754,1.01129 -0.61649,1.03945 -0.61113,0 -0.88551,-0.49068 -0.88551,-1.19875 l 0,-1.34789 -0.53596,0 0,2.91262 z"
         id="path3016"
         style="fill:#039;fill-opacity:1;fill-rule:nonzero;stroke:none" /><path
         d="m 198.28165,704.68361 c 0,-0.43384 -0.27974,-0.76488 -0.81071,-0.76488 -0.24586,0 -0.54306,0.1657 -0.54306,0.47393 0,0.51403 0.71911,0.56001 1.01131,0.56001 0.11369,0 0.22842,-0.0114 0.34246,-0.0114 l 0,-0.25766 z m -1.56545,1.12038 c 0.21738,0.18244 0.54309,0.29611 0.84492,0.29611 0.537,0 0.72053,-0.25656 0.72053,-0.75972 -0.21132,0.0114 -0.35993,0.0114 -0.57124,0.0114 -0.5534,0 -1.35339,-0.22772 -1.35339,-0.95912 0,-0.63323 0.43972,-0.90833 1.0676,-0.90833 0.49142,0 0.77684,0.2694 0.90299,0.44614 l 0.011,0 0,-0.37701 0.5028,0 c -0.0114,0.0859 -0.0232,0.23983 -0.0232,0.57158 l 0,1.20428 c 0,0.79358 -0.33674,1.20552 -1.17131,1.20552 -0.3699,0 -0.68989,-0.11367 -0.95857,-0.27474 l 0.0278,-0.45612 z"
         id="path3018"
         style="fill:#039;fill-opacity:1;fill-rule:nonzero;stroke:none" /><path
         d="m 199.79542,707.83729 0.53666,0 0,-4.28383 -0.53666,0 0,4.28383 z"
         id="path3020"
         style="fill:#039;fill-opacity:1;fill-rule:nonzero;stroke:none" /><path
         d="m 205.89572,705.20389 c 0,-1.11946 -0.56518,-1.71956 -1.54727,-1.71956 -0.98243,0 -1.54795,0.6001 -1.54795,1.71956 l 0,2.33658 0.57158,0 0,-2.26245 c 0,-0.76546 0.23909,-1.29017 0.97637,-1.29017 0.73622,0 0.97603,0.52471 0.97603,1.29017 l 0,2.26245 0.57124,0 0,-2.33658 z"
         id="path3022"
         style="fill:#039;fill-opacity:1;fill-rule:nonzero;stroke:none" /><path
         d="m 206.86712,706.46608 0.51956,0 0,-0.46256 0.0114,0 c 0.16036,0.33141 0.54913,0.53132 0.95358,0.53132 0.7544,0 1.09186,-0.46858 1.09186,-1.25113 l 0,-1.73025 -0.53737,0 0,1.50719 c 0,0.67989 -0.14859,1.01129 -0.6172,1.03945 -0.61113,0 -0.88588,-0.49068 -0.88588,-1.19875 l 0,-1.34789 -0.53595,0 0,2.91262 z"
         id="path3024"
         style="fill:#039;fill-opacity:1;fill-rule:nonzero;stroke:none" /><path
         d="m 210.4249,706.46608 0.53702,0 0,-2.91262 -0.53702,0 0,2.91262 z m 0.57157,0.65139 -0.60542,0 0,0.60508 0.60542,0 0,-0.60508 z"
         id="path3026"
         style="fill:#039;fill-opacity:1;fill-rule:nonzero;stroke:none" /><path
         d="m 213.23507,703.55346 -0.63929,0 -1.04519,2.91262 0.58799,0 0.7886,-2.37631 0.011,0 0.80499,2.37631 0.53736,0 -1.0455,-2.91262 z"
         id="path3028"
         style="fill:#039;fill-opacity:1;fill-rule:nonzero;stroke:none" /><path
         d="m 215.17715,705.28976 c 0.0399,0.37702 0.25657,0.81034 0.78256,0.81034 0.46181,0 0.72479,-0.36561 0.72479,-0.81034 l -1.50735,0 z m 1.85586,-1.07989 c -0.13114,-0.10835 -0.54198,-0.29114 -0.8962,-0.29114 -0.5078,0 -0.95966,0.39482 -0.95966,0.97121 l 2.07929,0 c 0,0.93613 -0.31465,1.6449 -1.28533,1.6449 -0.82248,0 -1.36554,-0.61113 -1.36554,-1.47419 0,-0.94701 0.4743,-1.57632 1.50806,-1.57632 0.48003,0 0.71412,0.11546 0.91938,0.18887 l 0,0.53667 z"
         id="path3030"
         style="fill:#039;fill-opacity:1;fill-rule:nonzero;stroke:none" /><path
         d="m 217.97591,706.46608 0.50245,0 0,-0.45078 0.0121,0 c 0.14182,0.30288 0.45079,0.51954 0.75901,0.51954 0.15964,0 0.23947,-0.0171 0.35421,-0.0406 l 0,-0.47893 c -0.0973,0.0399 -0.20597,0.051 -0.29719,0.051 -0.47999,0 -0.79395,-0.45684 -0.79395,-1.18843 l 0,-1.32437 -0.53666,0 0,2.91262 z"
         id="path3032"
         style="fill:#039;fill-opacity:1;fill-rule:nonzero;stroke:none" /><path
         d="m 219.98108,704.12504 c 0.2106,-0.13719 0.51349,-0.20631 0.66708,-0.20631 0.24588,0 0.54877,0.10297 0.54877,0.41691 0,0.53115 -1.26288,0.48588 -1.26288,1.30264 0,0.60543 0.45148,0.89656 1.02876,0.89656 0.25157,0 0.45648,-0.0517 0.66851,-0.11366 l -0.0463,-0.46932 c -0.11974,0.0752 -0.43975,0.14824 -0.56518,0.14824 -0.27402,0 -0.51349,-0.11367 -0.51349,-0.35421 0,-0.59331 1.26183,-0.42226 1.26183,-1.35323 0,-0.62183 -0.49746,-0.90833 -1.01702,-0.90833 -0.27403,0 -0.55376,0.0289 -0.79962,0.16036 l 0.0296,0.48035 z"
         id="path3034"
         style="fill:#039;fill-opacity:1;fill-rule:nonzero;stroke:none" /><path
         d="m 222.48692,706.46608 0.53772,0 0,-2.91262 -0.53772,0 0,2.91262 z m 0.57193,0.65139 -0.60508,0 0,0.60508 0.60508,0 0,-0.60508 z"
         id="path3036"
         style="fill:#039;fill-opacity:1;fill-rule:nonzero;stroke:none" /><path
         d="m 225.55437,706.03239 -0.7701,0 0,-1.59341 c 0,-0.33746 0.20456,-0.52025 0.45044,-0.52025 0.16641,0 0.28579,0.0517 0.36561,0.10297 l 0,-0.45718 c -0.11971,-0.0342 -0.28541,-0.0802 -0.45646,-0.0802 -0.55415,0 -0.89695,0.26298 -0.89695,0.84633 l 0,1.70173 -0.6571,0 0,0.43369 0.6571,0 0,0.67491 0.53736,0.17034 0,-0.84525 0.7701,0 0,-0.43369 z"
         id="path3038"
         style="fill:#039;fill-opacity:1;fill-rule:nonzero;stroke:none" /><path
         d="m 226.01192,702.76559 c 0.068,-0.0235 0.15927,-0.0463 0.2505,-0.0463 0.47964,0 0.63965,0.66316 0.63965,0.71984 0,0.0627 -0.0681,0.21131 -0.10263,0.30822 l -0.98815,2.71877 0.58833,0 0.78253,-2.41088 0.011,0 0.80035,2.41088 0.54309,0 -1.07404,-2.97533 c -0.19991,-0.55946 -0.41194,-1.20517 -1.11927,-1.20517 -0.17214,0 -0.26942,0.0228 -0.36561,0.0399 l 0.0342,0.44011 z"
         id="path3040"
         style="fill:#039;fill-opacity:1;fill-rule:nonzero;stroke:none" /><path
         d="m 178.84003,698.25991 c 0,0.55341 0.33674,1.09043 0.91404,1.09043 0.57086,0 0.90832,-0.53702 0.90832,-1.09043 0,-0.51919 -0.28009,-1.09149 -0.90832,-1.09149 -0.63431,0 -0.91404,0.5723 -0.91404,1.09149 z m -0.57124,0 c 0,-0.83385 0.60508,-1.52552 1.48528,-1.52552 0.8734,0 1.47919,0.69167 1.47919,1.52552 0,0.88518 -0.59439,1.52554 -1.47919,1.52554 -0.89053,0 -1.48528,-0.64036 -1.48528,-1.52554 z"
         id="path3042"
         style="fill:#039;fill-opacity:1;fill-rule:nonzero;stroke:none" /><path
         d="m 182.30052,699.28193 -0.68527,0 0,0.43402 0.68527,0 0,0.26941 c 0,0.70734 0.18387,1.16989 0.97746,1.16989 0.1372,0 0.25124,-0.0168 0.35884,-0.0339 l -0.0217,-0.43404 c -0.0631,0.0228 -0.16641,0.0335 -0.25764,0.0335 -0.46218,0 -0.51956,-0.29648 -0.51956,-0.69059 l 0,-0.31431 0.77149,0 0,-0.43402 -0.77149,0 0,-2.4777 -0.53737,0 0,2.4777 z"
         id="path3044"
         style="fill:#039;fill-opacity:1;fill-rule:nonzero;stroke:none" /><path
         d="m 187.46506,700.19025 c -0.29114,0.11369 -0.45113,0.16607 -0.74761,0.16607 -0.32036,0 -0.69738,-0.11511 -0.69738,-0.53168 0,-0.76614 1.71369,-0.58762 1.71369,-1.90219 0,-0.85023 -0.65675,-1.18806 -1.4564,-1.18806 -0.27938,0 -0.55411,0.0809 -0.81604,0.16642 l 0.0563,0.53025 c 0.19386,-0.0795 0.53703,-0.19351 0.82851,-0.19351 0.32534,0 0.78218,0.18245 0.78218,0.65141 0,0.89051 -1.71368,0.64428 -1.71368,1.88366 0,0.70948 0.55983,1.08578 1.28036,1.08578 0.26264,0 0.57621,-0.0456 0.85026,-0.14182 l -0.0802,-0.52633 z"
         id="path3046"
         style="fill:#039;fill-opacity:1;fill-rule:nonzero;stroke:none" /><path
         d="m 188.52734,699.71595 0.53737,0 0,-2.91172 -0.53737,0 0,2.91172 z m 0.57158,0.65177 -0.60508,0 0,0.60437 0.60508,0 0,-0.60437 z"
         id="path3048"
         style="fill:#039;fill-opacity:1;fill-rule:nonzero;stroke:none" /><path
         d="m 190.04716,699.71595 0.51992,0 0,-0.46218 0.011,0 c 0.16036,0.3314 0.54843,0.53168 0.95359,0.53168 0.7544,0 1.09149,-0.46895 1.09149,-1.25221 l 0,-1.72901 -0.53737,0 0,1.50735 c 0,0.67957 -0.14824,1.01061 -0.61684,1.03876 -0.61077,0 -0.88516,-0.49141 -0.88516,-1.19875 l 0,-1.34736 -0.53666,0 0,2.91172 z"
         id="path3050"
         style="fill:#039;fill-opacity:1;fill-rule:nonzero;stroke:none" /><path
         d="m 194.72493,697.23755 c -0.50316,0 -0.81105,0.48001 -0.81105,1.02842 0,0.49639 0.26905,1.08437 0.81105,1.08437 0.57123,0 0.85025,-0.51919 0.85025,-1.12498 0,-0.54272 -0.34781,-0.98781 -0.85025,-0.98781 z m 1.38833,2.4784 -0.49781,0 0,-0.43402 -0.011,0 c -0.16001,0.31394 -0.44509,0.50352 -0.95965,0.50352 -0.87947,0 -1.30175,-0.80035 -1.30175,-1.54905 0,-0.75296 0.41051,-1.43217 1.24403,-1.43217 0.37201,0 0.74938,0.1479 0.97745,0.45044 l 0.0107,0 0,-0.28544 c 0,-0.61683 -0.33675,-0.99919 -0.90227,-0.99919 -0.39413,0 -0.63929,0.0738 -1.05051,0.26191 l -0.0574,-0.49674 c 0.4686,-0.15965 0.73728,-0.19957 1.04516,-0.19957 1.04553,0 1.50308,0.50816 1.50308,1.39403 l 0,2.78628 z"
         id="path3052"
         style="fill:#039;fill-opacity:1;fill-rule:nonzero;stroke:none" /><path
         d="m 198.75665,697.93457 c 0,-0.43403 -0.27938,-0.76615 -0.81104,-0.76615 -0.24589,0 -0.54237,0.16642 -0.54237,0.47501 0,0.5128 0.71982,0.55912 1.01096,0.55912 0.11439,0 0.22842,-0.0118 0.34245,-0.0118 l 0,-0.25621 z m -1.56401,1.11966 c 0.21631,0.18279 0.54166,0.29611 0.8449,0.29611 0.5363,0 0.71911,-0.25656 0.71911,-0.75937 -0.2106,0.0118 -0.35955,0.0118 -0.57087,0.0118 -0.55411,0 -1.35341,-0.22912 -1.35341,-0.95929 0,-0.63429 0.43904,-0.90904 1.06763,-0.90904 0.49068,0 0.77683,0.26904 0.90298,0.44651 l 0.0114,0 0,-0.37667 0.50174,0 c -0.0107,0.0848 -0.0217,0.23804 -0.0217,0.57052 l 0,1.20481 c 0,0.7943 -0.33818,1.20589 -1.17132,1.20589 -0.3706,0 -0.69096,-0.11475 -0.95963,-0.27581 l 0.0292,-0.45541 z"
         id="path3054"
         style="fill:#039;fill-opacity:1;fill-rule:nonzero;stroke:none" /><path
         d="m 202.40103,698.27168 c 0.0114,-0.45755 -0.22842,-1.10326 -0.80571,-1.10326 -0.60507,0 -0.85666,0.6001 -0.85666,1.0858 0,0.542 0.28008,1.09612 0.86236,1.09612 0.58226,0 0.8114,-0.55412 0.80001,-1.07866 z m -2.19903,-2.66762 0.53666,0 0,1.59928 0.0117,0 c 0.1657,-0.26867 0.45648,-0.46895 0.97105,-0.46895 0.87947,0 1.25079,0.7772 1.25079,1.57719 0,0.7822 -0.41122,1.47387 -1.2565,1.47387 -0.5142,0 -0.8456,-0.26406 -0.98849,-0.48072 l -0.0107,0 0,0.41122 -0.51458,0 0,-4.11189 z"
         id="path3056"
         style="fill:#039;fill-opacity:1;fill-rule:nonzero;stroke:none" /><path
         d="m 204.06837,698.25991 c 0,0.55341 0.3371,1.09043 0.91402,1.09043 0.57089,0 0.90799,-0.53702 0.90799,-1.09043 0,-0.51919 -0.27974,-1.09149 -0.90799,-1.09149 -0.63394,0 -0.91402,0.5723 -0.91402,1.09149 z m -0.57086,0 c 0,-0.83385 0.60543,-1.52552 1.48488,-1.52552 0.87343,0 1.47885,0.69167 1.47885,1.52552 0,0.88518 -0.59367,1.52554 -1.47885,1.52554 -0.89157,0 -1.48488,-0.64036 -1.48488,-1.52554 z"
         id="path3058"
         style="fill:#039;fill-opacity:1;fill-rule:nonzero;stroke:none" /><path
         d="m 207.18142,699.71595 0.50245,0 0,-0.45112 0.0111,0 c 0.14325,0.3036 0.45148,0.52062 0.76009,0.52062 0.15929,0 0.23947,-0.0175 0.35385,-0.041 l 0,-0.47964 c -0.0973,0.0399 -0.20525,0.0517 -0.29648,0.0517 -0.47964,0 -0.7943,-0.45757 -0.7943,-1.18808 l 0,-1.32419 -0.53666,0 0,2.91172 z"
         id="path3060"
         style="fill:#039;fill-opacity:1;fill-rule:nonzero;stroke:none" /><path
         d="m 209.77955,698.54001 c 0.0403,0.3763 0.2573,0.81033 0.7829,0.81033 0.46254,0 0.72516,-0.36524 0.72516,-0.81033 l -1.50806,0 z m 1.85657,-1.08009 c -0.13113,-0.10834 -0.54342,-0.2915 -0.89657,-0.2915 -0.50885,0 -0.96,0.39519 -0.96,0.9714 l 2.07892,0 c 0,0.9365 -0.31322,1.64563 -1.28462,1.64563 -0.82208,0 -1.36516,-0.61185 -1.36516,-1.47387 0,-0.94788 0.47429,-1.57719 1.50805,-1.57719 0.48001,0 0.71413,0.11475 0.91938,0.18887 l 0,0.53666 z"
         id="path3062"
         style="fill:#039;fill-opacity:1;fill-rule:nonzero;stroke:none" /><path
         d="m 215.42694,715.48747 c 1.09364,-1.0083 3.24883,-1.92856 5.88154,-1.96954 2.30735,-0.0394 4.1689,0.65549 4.28329,2.56837 0.24481,4.14112 -10.37472,2.48393 -9.96276,9.47457 0.20456,3.49808 3.6775,4.65641 7.42449,4.59261 2.02477,-0.0342 4.04989,-0.51439 5.15922,-1.07778 l 0.005,-2.48391 c -1.3538,0.92847 -3.24279,1.51946 -4.80573,1.54885 -2.37719,0.0437 -4.26405,-0.39392 -4.29397,-2.13148 -0.0642,-3.62423 10.64835,-2.75493 10.23892,-9.68766 -0.22949,-3.90389 -4.0235,-5.10122 -7.99467,-5.02852 -2.28418,0.0314 -4.52133,0.49533 -5.92963,1.21622 l -0.005,2.97827 z"
         id="path3064"
         style="fill:#039;fill-opacity:1;fill-rule:nonzero;stroke:none" /><path
         d="m 205.38115,711.27338 c -4.93256,0 -7.77299,2.21569 -7.77299,6.77302 l 0,11.56901 3.69853,0 0.001,-11.56901 c 0,-2.83314 1.36018,-4.55199 4.07304,-4.55199 2.71252,0 4.07377,1.71885 4.07377,4.55199 l 0.001,11.56901 3.69603,0 0,-11.56901 c 0,-4.55733 -2.83973,-6.77302 -7.77123,-6.77302 z"
         id="path3066"
         style="fill:#039;fill-opacity:1;fill-rule:nonzero;stroke:none" /><path
         d="m 191.60118,729.61541 0,-13.03219 -8.47537,12.10995 c -0.40124,0.55893 -1.0637,0.92224 -1.80169,0.92224 l -2.80588,0 0,-17.76974 2.46521,0 0,13.03973 8.46112,-12.07366 c 0.40197,-0.57657 1.0687,-0.96607 1.83163,-0.96607 l 2.78949,0 0,17.76974 -2.46451,0 z"
         id="path3068"
         style="fill:#039;fill-opacity:1;fill-rule:nonzero;stroke:none" /><path
         d="m 174.27325,711.14974 0,18.3877 -0.36561,0 -29.59004,0 0,-18.40161 c -0.001,-0.0155 -0.002,-0.0636 -0.002,-0.14165 0,-0.86878 0.18832,-5.46566 3.8849,-11.28892 4.03813,-6.37184 10.70112,-8.34137 10.98245,-8.42156 l 0.10085,-0.0289 0.10049,0.0289 c 0.28222,0.0802 6.96677,2.04935 11.00757,8.42156 4.02833,6.34851 3.88902,11.23993 3.88188,11.44448 z"
         id="path3070"
         style="fill:#039;fill-opacity:1;fill-rule:nonzero;stroke:none" /><path
         d="m 169.74212,700.25493 c -3.62922,-5.72437 -9.65346,-7.8122 -10.49034,-8.0791 -0.8344,0.26761 -6.83866,2.35473 -10.46665,8.0791 l 0,0 c -3.6376,5.73061 -3.76998,10.3257 -3.76998,10.95324 0,0.0449 9.1e-4,0.0695 9.1e-4,0.0727 0,0 0,2.98842 0,6.50967 l 28.49462,0 c 0,-3.51501 0,-6.49613 0,-6.49613 0,-0.004 0.001,-0.0296 0.001,-0.0762 0,-0.64321 -0.13451,-5.23474 -3.76996,-10.96322 z"
         id="path3072"
         style="fill:white;fill-opacity:1;fill-rule:nonzero;stroke:none" /><path
         d="m 165.22791,715.10696 0.006,0.001 0,0 c -0.001,-7.3e-4 -0.004,-7.3e-4 -0.006,-0.001 z"
         id="path3074"
         style="fill:#592b1a;fill-opacity:1;fill-rule:nonzero;stroke:none" /><path
         d="m 158.34825,727.42128 c -0.0513,0.009 -1.27038,0.22396 -2.7264,0.22396 -1.15386,0 -2.19512,-0.34646 -2.65301,-0.52331 -0.45757,0.17685 -1.49899,0.52331 -2.65266,0.52331 -1.45568,0 -2.6751,-0.21488 -2.72642,-0.22396 l -0.16392,-0.0293 0,-1.26022 0,-5.42504 0,-1.0694 0.24142,0.0528 c 0.0102,0.002 1.0188,0.21871 2.50423,0.21871 1.11645,0 2.27368,-0.31082 2.72964,-0.47519 l 0.0673,-0.0243 0.0691,0.0243 c 0.45542,0.16437 1.61213,0.47519 2.72927,0.47519 1.48526,0 2.49373,-0.21648 2.50371,-0.21871 l 0.2416,-0.0528 0,1.0694 0,5.42504 0,1.26013 -0.16393,0.0294 z"
         id="path3076"
         style="fill:#f60;fill-opacity:1;fill-rule:nonzero;stroke:none" /><path
         d="m 152.77818,726.76213 c -0.46147,0.17318 -1.41328,0.47464 -2.45292,0.47464 -1.12641,0 -2.12008,-0.13462 -2.49246,-0.1917 0,-0.30878 0,-5.43128 0,-5.86201 0.38947,0.0665 1.22796,0.18271 2.34762,0.18271 1.00347,0 2.00729,-0.22931 2.59776,-0.41167 l 0,5.80803 z"
         id="path3078"
         style="fill:white;fill-opacity:1;fill-rule:nonzero;stroke:none" /><path
         d="m 155.63093,727.23677 c -1.05319,0 -2.01675,-0.3094 -2.4711,-0.48141 l 0,-5.80714 c 0.58727,0.18333 1.60107,0.41755 2.61613,0.41755 1.11946,0 1.95778,-0.11626 2.34725,-0.18271 0,0.43073 0,5.55323 0,5.86201 -0.37219,0.0572 -1.36569,0.1917 -2.49228,0.1917 z"
         id="path3080"
         style="fill:white;fill-opacity:1;fill-rule:nonzero;stroke:none" /><path
         d="m 148.93782,726.25922 c -0.14432,-0.0389 -0.22379,-0.17068 -0.17995,-0.29541 0.0445,-0.12472 0.19707,-0.19403 0.34102,-0.15572 0.007,0.002 0.75189,0.134 1.3862,0.134 0.57585,0 1.22156,-0.26157 1.22833,-0.26459 0.14039,-0.0456 0.29756,0.0164 0.34994,0.13842 0.0527,0.12188 -0.0185,0.25801 -0.15894,0.30433 -0.0314,0.0107 -0.74299,0.29292 -1.41933,0.29292 -0.71876,0 -1.51448,-0.1454 -1.54727,-0.15395 z"
         id="path3082"
         style="fill:#039;fill-opacity:1;fill-rule:nonzero;stroke:none" /><path
         d="m 148.93782,725.09486 c -0.14432,-0.0385 -0.22379,-0.17104 -0.17995,-0.29558 0.0445,-0.12439 0.19707,-0.19386 0.34102,-0.15539 0.007,10e-4 0.75189,0.13329 1.3862,0.13329 0.57585,0 1.22156,-0.26174 1.22833,-0.26407 0.14039,-0.0454 0.29756,0.0166 0.34994,0.13864 0.0527,0.12169 -0.0185,0.25763 -0.15894,0.30359 -0.0314,0.0102 -0.74299,0.29382 -1.41933,0.29382 -0.71876,0 -1.51448,-0.14574 -1.54727,-0.1543 z"
         id="path3084"
         style="fill:#039;fill-opacity:1;fill-rule:nonzero;stroke:none" /><path
         d="m 148.93782,723.92995 c -0.14432,-0.0385 -0.22379,-0.17121 -0.17995,-0.29506 0.0445,-0.12488 0.19707,-0.19456 0.34102,-0.15588 0.007,0.002 0.75189,0.13363 1.3862,0.13363 0.57585,0 1.22156,-0.26156 1.22833,-0.26353 0.14039,-0.0461 0.29756,0.0159 0.34994,0.13772 0.0527,0.12241 -0.0185,0.25783 -0.15894,0.30363 -0.0314,0.0103 -0.74299,0.29433 -1.41933,0.29433 -0.71876,0 -1.51448,-0.14556 -1.54727,-0.15484 z"
         id="path3086"
         style="fill:#039;fill-opacity:1;fill-rule:nonzero;stroke:none" /><path
         d="m 148.93782,722.76559 c -0.14432,-0.0394 -0.22379,-0.1714 -0.17995,-0.2954 0.0445,-0.1249 0.19707,-0.19422 0.34102,-0.15574 0.007,0.002 0.75189,0.13436 1.3862,0.13436 0.57585,0 1.22156,-0.26282 1.22833,-0.26459 0.14039,-0.0458 0.29756,0.0157 0.34994,0.13789 0.0527,0.12188 -0.0185,0.25836 -0.15894,0.30415 -0.0314,0.01 -0.74299,0.29416 -1.41933,0.29416 -0.71876,0 -1.51448,-0.14663 -1.54727,-0.15483 z"
         id="path3088"
         style="fill:#039;fill-opacity:1;fill-rule:nonzero;stroke:none" /><path
         d="m 157.04118,726.25922 c 0.14324,-0.0389 0.22343,-0.17068 0.17923,-0.29541 -0.0445,-0.12472 -0.1967,-0.19403 -0.34066,-0.15572 -0.007,0.002 -0.7519,0.134 -1.38655,0.134 -0.57551,0 -1.22121,-0.26157 -1.22833,-0.26459 -0.14005,-0.0456 -0.29719,0.0164 -0.34957,0.13842 -0.0531,0.12188 0.0182,0.25801 0.15856,0.30433 0.0314,0.0107 0.74334,0.29292 1.41934,0.29292 0.71876,0 1.51448,-0.1454 1.54798,-0.15395 z"
         id="path3090"
         style="fill:#039;fill-opacity:1;fill-rule:nonzero;stroke:none" /><path
         d="m 157.04118,725.09486 c 0.14324,-0.0385 0.22343,-0.17104 0.17923,-0.29558 -0.0445,-0.12439 -0.1967,-0.19386 -0.34066,-0.15539 -0.007,10e-4 -0.7519,0.13329 -1.38655,0.13329 -0.57551,0 -1.22121,-0.26174 -1.22833,-0.26407 -0.14005,-0.0454 -0.29719,0.0166 -0.34957,0.13864 -0.0531,0.12169 0.0182,0.25763 0.15856,0.30359 0.0314,0.0102 0.74334,0.29382 1.41934,0.29382 0.71876,0 1.51448,-0.14574 1.54798,-0.1543 z"
         id="path3092"
         style="fill:#039;fill-opacity:1;fill-rule:nonzero;stroke:none" /><path
         d="m 157.04118,723.92995 c 0.14324,-0.0385 0.22343,-0.17121 0.17923,-0.29506 -0.0445,-0.12488 -0.1967,-0.19456 -0.34066,-0.15588 -0.007,0.002 -0.7519,0.13363 -1.38655,0.13363 -0.57551,0 -1.22121,-0.26156 -1.22833,-0.26353 -0.14005,-0.0461 -0.29719,0.0159 -0.34957,0.13772 -0.0531,0.12241 0.0182,0.25783 0.15856,0.30363 0.0314,0.0103 0.74334,0.29433 1.41934,0.29433 0.71876,0 1.51448,-0.14556 1.54798,-0.15484 z"
         id="path3094"
         style="fill:#039;fill-opacity:1;fill-rule:nonzero;stroke:none" /><path
         d="m 157.04118,722.76559 c 0.14324,-0.0394 0.22343,-0.1714 0.17923,-0.2954 -0.0445,-0.1249 -0.1967,-0.19422 -0.34066,-0.15574 -0.007,0.002 -0.7519,0.13436 -1.38655,0.13436 -0.57551,0 -1.22121,-0.26282 -1.22833,-0.26459 -0.14005,-0.0458 -0.29719,0.0157 -0.34957,0.13789 -0.0531,0.12188 0.0182,0.25836 0.15856,0.30415 0.0314,0.01 0.74334,0.29416 1.41934,0.29416 0.71876,0 1.51448,-0.14663 1.54798,-0.15483 z"
         id="path3096"
         style="fill:#039;fill-opacity:1;fill-rule:nonzero;stroke:none" /><path
         d="m 172.22337,712.4978 c -0.14681,0.53595 -0.41728,0.77309 -0.77756,0.96417 -0.9935,0.52723 -2.2906,0.15779 -3.42842,-0.22975 -0.85843,-0.29256 -1.11751,-0.38092 -2.09033,-0.52989 -0.73478,-0.11296 -3.19288,-0.43117 -3.96971,0.21131 -0.11154,0.0919 -0.22343,0.29373 -0.23483,0.42343 -0.0217,0.26826 0.0994,0.58771 0.19242,0.68928 0.19634,0.21478 0.65388,0.31911 1.39973,0.31911 l 1.9029,-0.0299 c 0.11937,-0.15286 0.42369,-0.39947 1.19661,-0.56481 1.2294,-0.26228 2.58139,0.16427 2.58139,0.16427 0,0 -0.22344,0.0446 -0.40945,0.18442 -0.16428,0.12275 -0.15038,0.30752 -0.15038,0.30752 0,10e-6 0.27118,-0.13096 0.66566,-0.11883 0.49175,0.0139 0.7191,0.24766 1.17809,0.36418 0.45897,0.11652 0.96998,0.0207 0.96998,0.0207 0,0 -0.46361,0.49534 -0.92331,0.58299 -0.45789,0.0875 -1.03019,-0.0299 -1.03019,-0.0299 0,0 0.14362,0.0641 0.3143,0.21843 0.13684,0.12276 0.16427,0.33442 0.16427,0.33442 0,0 -0.54913,-0.21327 -1.10646,-0.18403 -0.55768,0.0292 -0.5167,0.23001 -1.59786,0.2594 -0.81995,0.022 -1.49737,-0.46512 -1.77781,-0.70236 -0.87663,0.057 -1.56723,0.0882 -1.97098,0.0882 -1.11464,0 -1.75821,-0.18254 -2.15161,-0.61024 -0.32856,-0.35697 -0.47145,-0.81942 -0.42442,-1.37452 0.0363,-0.43181 0.22914,-0.79457 0.57266,-1.07822 1.04053,-0.86058 3.83003,-0.59635 4.8171,-0.42192 1.10575,0.19529 1.43608,0.28043 2.07645,0.49283 l 0.0367,0.0123 c 0.49532,0.16551 2.00303,0.66957 2.63519,0.33371 0.12828,-0.0677 0.2163,-0.19492 0.26974,-0.3893 0.0239,-0.0871 0.036,-0.16589 0.036,-0.23805 0,-0.13077 -0.0399,-0.24035 -0.12117,-0.33996 -0.5755,-0.70377 -2.74067,-0.8235 -3.68106,-0.87411 -0.10371,0.0246 -0.7323,0.1657 -1.56722,0.17051 -0.5584,0.003 -1.02629,-0.0322 -1.5216,-0.0697 -0.90371,-0.0684 -1.83806,-0.13916 -3.38994,0.0383 -0.71982,0.0823 -1.39439,0.21381 -1.90237,0.3642 -0.0237,0.19295 -0.1142,0.37683 -0.30699,0.59277 0.37238,-0.12025 0.85631,0.28882 0.99243,0.49265 -0.002,0.0203 -0.66138,0.19493 -0.70059,0.62309 -0.001,0.0134 0.46719,-0.0388 0.66175,0.6032 -0.46753,0.25309 -0.32036,0.34638 -0.54487,0.662 -0.19812,0.27725 -0.48462,0.41711 -0.83704,0.40828 0.14253,0.0183 0.15536,0 0.31108,0.0784 0.20277,0.10139 0.34388,0.38094 0.54521,0.36945 -0.40659,0.63626 -1.49844,0.72028 -1.95136,0.58601 0.11617,0.14487 0.2947,0.30504 0.29685,0.50325 -0.60365,-0.16641 -1.19519,0.14744 -1.80385,0.0333 -0.50422,-0.0946 -0.79216,-0.29943 -0.95036,-0.77862 l -0.001,0 -0.0203,0 -0.001,0 c -0.15893,0.47919 -0.44614,0.684 -0.95072,0.77862 -0.60866,0.11411 -1.20055,-0.19974 -1.80456,-0.0333 0.003,-0.19821 0.18139,-0.35838 0.29685,-0.50325 -0.45187,0.13427 -1.54406,0.0503 -1.95065,-0.58601 0.20133,0.0115 0.34209,-0.26806 0.54485,-0.36945 0.17889,-0.0899 0.21487,-0.0718 0.31144,-0.0784 -0.35205,0.009 -0.63857,-0.13103 -0.83705,-0.40828 -0.22521,-0.31562 -0.0777,-0.40891 -0.54486,-0.662 0.19493,-0.64205 0.6628,-0.58985 0.66209,-0.6032 -0.0392,-0.42816 -0.69951,-0.60277 -0.70094,-0.62309 0.13613,-0.20383 0.62006,-0.6129 0.99279,-0.49265 -0.30573,-0.34173 -0.35669,-0.60365 -0.28685,-0.94789 -0.47501,0.35993 -0.94362,0.75762 -1.1927,1.08742 -0.0584,0.0848 -0.24481,0.69825 -0.36829,1.10422 l -0.10066,0.33016 c -1.8e-4,1.8e-4 -0.0495,0.17532 -0.0495,0.17532 -0.14879,0.54682 -0.29221,1.00436 -0.54058,1.06503 -0.13684,0.0326 -0.258,0.0399 -0.36775,0.0331 -0.0859,0.1339 -0.20491,0.27519 -0.34496,0.31858 -0.28792,0.088 -0.42726,0.0249 -0.42726,0.0249 0,0 0.23306,-0.16731 0.31146,-0.33959 0.0199,-0.0442 0.0328,-0.0861 0.0406,-0.12401 -0.0527,-0.0298 -0.0994,-0.0618 -0.13879,-0.0941 l -0.021,-0.0169 c -0.0294,-0.0237 -0.0697,-0.0569 -0.11277,-0.0959 -0.0196,0.006 -0.0396,0.0109 -0.0595,0.0135 -0.29898,0.0394 -0.42655,-0.0476 -0.42655,-0.0476 0,0 0.16267,-0.0792 0.28294,-0.1901 -0.10405,-0.1446 -0.18992,-0.33035 -0.18992,-0.55921 0,-0.0226 0.002,-0.0464 0.005,-0.07 -0.28579,-0.0219 -0.39128,-0.12517 -0.39128,-0.12517 0,0 0.27725,-0.0748 0.41195,-0.20739 0.0148,-0.0148 0.0276,-0.0297 0.0397,-0.0445 -0.013,-0.0146 -0.023,-0.0256 -0.023,-0.0256 -0.0577,-0.0905 -0.083,-0.19323 -0.083,-0.29969 0,-0.24907 0.13968,-0.51812 0.33158,-0.69345 0,0 0.5126,-0.4244 0.56034,-0.46414 0.20313,-0.45238 0.42692,-0.85025 0.57445,-1.01756 0.0454,-0.0575 0.35866,-0.5967 0.69024,-1.1672 0.0442,-0.0761 0.0894,-0.15395 0.13542,-0.23306 0.0713,-0.34992 0.15179,-0.78593 0.18779,-1.12802 0.0659,-0.61611 0.003,-1.30404 0.003,-1.30404 0,0 0.39911,0.0198 0.58014,0.27989 0.004,0.006 0.14718,-0.42708 0.12615,-0.91491 -0.0157,-0.3608 -0.11188,-0.86148 -0.11188,-0.86148 0,0 0.38913,0.20616 0.68203,0.46521 0.14718,0.13008 0.29648,0.34513 0.38665,0.48642 0.32179,-0.20542 1.24294,0.12224 1.70244,0.30717 0.0898,-0.18279 0.21292,-0.38468 0.38254,-0.61327 0.067,0.27581 0.36135,0.41373 0.49782,0.6343 0.0415,3.7e-4 0.0832,5.5e-4 0.12509,7.3e-4 0.0168,-0.30201 -0.0705,-0.58548 0.21523,-1.15029 0.0809,-0.15964 0.47678,-0.74994 0.76489,-1.05319 -0.10903,-0.51083 -0.3159,-1.44286 -0.53024,-2.20634 -0.24499,-0.87322 -0.44348,-1.30636 -0.55696,-1.5084 -0.32803,-0.016 -0.92919,-0.0364 -1.11983,-0.028 -0.45702,0.0219 -0.79537,-0.0738 -1.00545,-0.28419 -0.0155,-0.0157 -0.028,-0.0315 -0.0412,-0.0476 -0.15965,-0.0221 -0.34281,-0.0722 -0.44186,-0.18353 -0.19885,-0.22519 -0.20028,-0.37914 -0.20028,-0.37914 0,0 0.24908,0.1436 0.43796,0.1436 0.0139,0 0.0267,-10e-4 0.0399,-0.002 -3.6e-4,-0.0159 -1.7e-4,-0.0294 3.7e-4,-0.039 0.002,-0.044 0.0282,-0.11563 0.0697,-0.20223 -0.0308,-0.0224 -0.0584,-0.0476 -0.0807,-0.0762 -0.18353,-0.23859 -0.17355,-0.392 -0.17355,-0.392 0,10e-6 0.23341,0.15644 0.42121,0.17195 0.0588,-0.0934 0.12472,-0.18993 0.19385,-0.28348 -0.008,-0.01 -0.0164,-0.0193 -0.0232,-0.0296 -0.16534,-0.25195 -0.14361,-0.40411 -0.14361,-0.40411 0,0 0.1853,0.14505 0.35992,0.19279 0.0599,-0.0681 0.11901,-0.12935 0.17461,-0.17836 0.27475,-0.24213 0.95786,-0.0852 1.82271,0.14521 l 0.53666,0.13239 c 0.37862,0.0706 0.614,0.22182 0.78717,0.50584 0.0412,0.0672 0.0787,0.17763 0.13684,0.35242 l 0.051,0.15111 c 0.11902,0.33585 0.21221,0.55019 0.44989,0.93095 0.007,0.0116 0.23928,0.38449 0.55501,0.89835 0.27973,0.23269 0.61684,0.50334 0.862,0.66886 0.37417,0.25247 1.11893,0.6327 1.11893,0.6327 0,0 -0.1992,0.32302 -0.4946,0.36669 -0.006,0.001 0.37773,0.39073 0.69844,0.52952 0.36205,0.15787 0.8285,0.24338 0.8285,0.24338 0,0 -0.16962,0.34905 -0.43261,0.51778 0.10941,0.0356 0.20955,0.0996 0.33427,0.18174 0.62894,0.41015 1.09291,0.3959 1.53016,0.27296 0.0175,0.28366 -0.0542,0.45737 -0.30041,0.62146 0.20739,0.0882 0.42084,0.16304 0.64748,0.21756 0.14361,-0.24642 0.30575,-0.51849 0.37951,-0.62325 0.32429,-0.45986 0.81176,-1.0922 1.2066,-1.48812 0.0103,-0.01 0.015,-0.0283 0.015,-0.0533 0,-0.16571 -0.20205,-0.62362 -0.31716,-0.88536 l -0.0991,-0.22575 c 0,-1.8e-4 -0.39733,-0.93398 -0.51314,-1.20659 -0.23093,-0.0134 -0.90121,-0.0497 -1.13639,-0.0379 -0.44545,0.021 -0.77541,-0.072 -0.98032,-0.27653 -0.0262,-0.026 -0.0486,-0.0527 -0.0684,-0.0794 -0.1657,-0.0296 -0.36472,-0.0902 -0.46326,-0.2156 -0.18601,-0.23733 -0.17853,-0.39003 -0.17853,-0.39003 0,10e-6 0.24054,0.15715 0.42869,0.16839 0.0296,0.002 0.0567,9.1e-4 0.0827,-10e-4 0.008,-0.0502 0.0351,-0.12116 0.0777,-0.20578 -0.0442,-0.0315 -0.0827,-0.0675 -0.11011,-0.10958 -0.16498,-0.25195 -0.14324,-0.40322 -0.14324,-0.40322 0,1e-5 0.2252,0.17711 0.41265,0.20455 0.007,10e-4 0.0134,10e-4 0.0203,0.002 0.0453,-0.0695 0.0937,-0.1397 0.14398,-0.20829 -0.018,-0.018 -0.0349,-0.0369 -0.0485,-0.0576 -0.16535,-0.25211 -0.14397,-0.40498 -0.14397,-0.40498 0,0 0.21576,0.17051 0.40019,0.20275 0.0577,-0.0661 0.11403,-0.12472 0.16569,-0.17015 0.26333,-0.23215 0.8253,-0.0941 1.59109,0.12614 l 0.54485,0.14256 c 0.36954,0.0689 0.59938,0.21647 0.76829,0.49336 3.7e-4,3.6e-4 0.14432,0.30894 0.14432,0.30894 0.0674,0.15645 0.14362,0.3339 0.20277,0.42602 0.0887,0.1395 0.18209,0.30788 0.27652,0.48926 0.12828,0.10994 0.24766,0.21007 0.33177,0.27475 0.24409,0.18727 0.86414,0.52865 0.86414,0.52865 0,0 -0.12331,0.27188 -0.37631,0.29719 -0.003,5.5e-4 0.24588,0.2776 0.54485,0.45113 0.21239,0.1233 0.6336,0.19635 0.6336,0.19635 0,0 -0.29079,0.24589 -0.51101,0.34191 -0.0887,0.0385 -0.20562,0.0647 -0.31502,0.0836 -0.0139,0.12633 -0.0802,0.26762 -0.20133,0.45452 -0.21737,0.33604 0.10084,1.05889 0.32926,1.46816 0.11475,-0.16231 0.32108,-0.43153 0.6646,-0.81337 0,0 1.10397,-1.20783 1.34841,-1.47527 -0.0474,-0.19243 -0.20275,-0.79466 -0.44721,-1.45943 -0.17675,-0.48338 -0.42869,-0.9876 -0.55768,-1.23544 -0.26583,-0.0148 -0.86843,-0.0458 -1.08865,-0.0357 -0.44543,0.0214 -0.77541,-0.0716 -0.98067,-0.27671 -0.0346,-0.0345 -0.0616,-0.0702 -0.0855,-0.10565 -0.14966,-0.0356 -0.31215,-0.0983 -0.39625,-0.20935 -0.1821,-0.24089 -0.17104,-0.39376 -0.17104,-0.39376 0,0 0.1803,0.16944 0.42511,0.17584 0.0114,3.7e-4 0.0214,-3.6e-4 0.0321,-5.4e-4 0.0118,-0.0519 0.0406,-0.12204 0.0823,-0.20347 -0.0435,-0.0312 -0.0812,-0.0665 -0.10833,-0.10763 -0.165,-0.25264 -0.14325,-0.40462 -0.14325,-0.40462 0,0 0.22486,0.17871 0.41157,0.20526 0.007,10e-4 0.0136,10e-4 0.0203,0.002 0.0581,-0.0878 0.12115,-0.1771 0.18566,-0.26191 -0.001,-0.002 -0.003,-0.003 -0.004,-0.005 -0.16536,-0.25157 -0.1436,-0.40445 -0.1436,-0.40445 0,0 0.16604,0.13204 0.33211,0.18584 0.0481,-0.0534 0.0951,-0.10138 0.13861,-0.13968 0.26405,-0.23306 0.82815,-0.0944 1.59609,0.12686 l 0.54058,0.14182 c 0.36882,0.0684 0.59866,0.21594 0.76828,0.49301 0.0752,0.12347 0.41051,0.90565 0.50315,1.13157 0.16571,0.40678 0.35244,0.82619 0.53311,1.21016 0.0905,0.0768 0.17603,0.14592 0.24481,0.19351 0.30147,0.2097 0.94788,0.57835 0.94788,0.57835 0,0 -0.12899,0.27652 -0.37665,0.29701 -0.003,9.1e-4 0.25335,0.24641 0.50957,0.4098 0.23733,0.15198 0.66851,0.23786 0.66851,0.23786 0,0 -0.31038,0.23626 -0.5306,0.3314 -0.12935,0.0565 -0.31323,0.0921 -0.44366,0.11208 -0.0378,0.18352 -0.13079,0.24481 -0.2701,0.31536 -0.1233,0.0627 -0.29293,0.14879 -0.55092,0.45257 -0.33176,0.39021 -0.38166,1.13586 -0.38166,1.88027 0,0.16355 0.002,0.32711 0.005,0.48676 l 0.001,0.71448 c -0.0221,0.83919 -0.14502,1.42522 -0.26084,1.81149 1.09435,0.0994 3.10058,0.32107 3.92233,1.32616 0.24657,0.30182 0.37166,0.65495 0.37166,1.03999 0,0.17195 -0.0249,0.35029 -0.0752,0.53329 z"
         id="path3098"
         style="fill:#039;fill-opacity:1;fill-rule:nonzero;stroke:none" /><path
         d="m 156.86015,713.32239 c 0.17139,0.11866 0.58085,0.45788 0.36206,0.871 -0.23199,0.43553 -0.76473,0.25781 -0.92295,0.1927 -0.0221,0.0224 -1.20196,0.53566 -1.218,0.52658 0.011,0.008 -0.46076,-0.54593 -0.46041,-0.54593 -3.6e-4,0 -0.47001,0.55368 -0.45968,0.54593 -0.016,0.009 -1.19591,-0.50414 -1.21764,-0.52658 -0.15822,0.0651 -0.69095,0.24283 -0.92294,-0.1927 -0.21951,-0.41312 0.18993,-0.75234 0.36134,-0.871 -0.002,-0.007 -0.004,-0.0102 -0.004,-0.0102 0,10e-6 -0.38486,-0.68187 -0.38023,-0.67368 0.006,0.0109 1.1118,-1.33932 1.11145,-1.33932 0.001,0.003 -0.002,-0.86859 -0.002,-0.87233 0,0 0.43972,-0.29578 0.47322,-0.30469 0.0702,-0.3314 0.0916,-0.50262 0.16891,-0.68169 0.0246,-0.0581 0.44615,-0.18103 0.8556,-0.18815 0.005,0 0.0331,0 0.0331,0 0.4091,0.007 0.83064,0.13007 0.85524,0.18815 0.077,0.17907 0.0987,0.35029 0.16891,0.68169 0.0338,0.009 0.47074,0.30469 0.47074,0.30469 0.001,-0.001 0,0.87019 0.001,0.87233 -0.001,0 1.1054,1.3502 1.11146,1.33932 0.004,-0.008 -0.38023,0.67368 -0.38023,0.67368 0,10e-6 -0.002,0.003 -0.005,0.0102 z m -3.82236,-0.0676 0.98762,0.0114 0.0392,3.7e-4 -0.0369,-0.57495 -0.98993,0.56312 z m 2.30627,-0.57684 c 0.005,-0.0454 0.15751,-1.37658 0.15751,-1.37658 0,10e-6 -0.72232,-0.39179 -0.75813,-0.41139 -3.6e-4,-0.0381 -0.004,-0.45862 -0.005,-0.49107 0.0332,-0.0257 0.16356,-0.12328 0.29863,-0.18029 0.24355,-0.10334 0.48802,-0.0424 0.4905,-0.0417 l 0.0616,0.0157 -0.0522,-0.18228 -0.0221,-0.004 c -0.0116,-0.002 -0.28616,-0.0524 -0.51012,0.0151 -0.19438,0.059 -0.29613,0.13381 -0.32302,0.15554 -0.0189,0 -0.0996,0 -0.11777,0 -0.0267,-0.0203 -0.13382,-0.0962 -0.33035,-0.15554 -0.22325,-0.0675 -0.49816,-0.0173 -0.50975,-0.0151 l -0.0221,0.004 -0.0522,0.18228 0.0616,-0.0157 c 0.002,-7.3e-4 0.2466,-0.0616 0.49123,0.0417 0.13436,0.057 0.26514,0.15501 0.29809,0.18029 -1.8e-4,0.0328 -0.002,0.46255 -0.002,0.49624 -0.0292,0.0208 -0.75545,0.53771 -0.75545,0.53771 0,10e-6 1.28337,10e-4 1.35215,0.002 0,0.0698 0,1.80125 0,1.80125 l 1.06887,0.008 0.13504,10e-4 c 0,1e-5 -0.91688,-0.54423 -0.95554,-0.5672 z"
         id="path3100"
         style="fill:#f60;fill-opacity:1;fill-rule:nonzero;stroke:none" /><path
         d="m 164.37088,703.36727 c 0.1454,0.13471 0.21845,0.20847 0.21845,0.30451 0,0.0823 -0.0538,0.18101 -0.1625,0.34868 -0.082,0.12686 -0.11509,0.27921 -0.11509,0.44188 0,0.53879 0.35884,1.1868 0.50031,1.42218 -0.0403,0.0506 -0.0976,0.12435 -0.16856,0.22163 -0.0378,0.0248 -0.0709,0.0469 -0.0909,0.0611 -0.0916,0.0647 -0.32712,0.26298 -0.47395,0.4563 -0.0199,0.0273 -0.0413,0.0609 -0.0627,0.0978 -0.3036,0.009 -1.01238,0.0294 -1.74146,-0.19242 0.22485,-0.12937 0.27687,-0.29701 0.28685,-0.5119 -0.47999,0.10441 -0.88516,0.11065 -1.24935,0.0577 0.12686,-0.21647 0.25764,-0.43455 0.31858,-0.52079 0.31786,-0.45061 0.79393,-1.06886 1.17665,-1.4523 0.0624,-0.0624 0.0891,-0.14467 0.0891,-0.24517 0,-0.23715 -0.14931,-0.57621 -0.33497,-0.99742 l -0.098,-0.22377 -0.57871,-1.36126 -0.0844,-0.005 c -0.0388,-0.002 -0.95217,-0.0579 -1.25079,-0.0429 -0.32605,0.0155 -0.57515,-0.0397 -0.72819,-0.15841 0.018,-0.0625 0.0306,-0.1445 0.008,-0.22164 -0.0301,-0.1021 -0.0941,-0.15358 -0.1454,-0.18013 0.007,-0.0144 0.0146,-0.0299 0.0233,-0.0469 0.17943,0.0599 0.35084,0.0768 0.35084,0.0768 0,0 0.0991,-0.13041 0.0588,-0.29327 -0.0317,-0.12454 -0.0919,-0.18993 -0.13469,-0.22253 0.0125,-0.0173 0.0246,-0.0342 0.0371,-0.0513 0.20275,0.0816 0.4237,0.10389 0.4237,0.10389 0,0 0.10369,-0.15822 0.0691,-0.32892 -0.0182,-0.0926 -0.0649,-0.14574 -0.10763,-0.17639 0.24447,-0.0777 0.87625,0.10334 1.26967,0.21666 l 0.57016,0.1486 c 0.29327,0.0547 0.4572,0.15751 0.58477,0.36651 l 0.12649,0.27491 c 0.0716,0.16607 0.15287,0.35439 0.22343,0.46522 0.17604,0.27617 0.37488,0.68062 0.56696,1.0717 0.25016,0.50941 0.46646,0.94933 0.62539,1.09649 z"
         id="path3102"
         style="fill:#f60;fill-opacity:1;fill-rule:nonzero;stroke:none" /><path
         d="m 153.47555,706.8798 c 7.3e-4,-0.006 1.9e-4,-0.0107 5.5e-4,-0.0164 0.002,0 0.003,0 0.005,0 -0.002,0.006 -0.003,0.0109 -0.005,0.0164 z"
         id="path3104"
         style="fill:#d78300;fill-opacity:1;fill-rule:nonzero;stroke:none" /><path
         d="m 152.2989,708.45128 c -0.17676,-0.26618 -0.49747,-0.39019 -0.91297,-0.44186 0.0784,0.41478 0.007,0.69808 -0.14573,1.02628 -0.13294,0.28935 -0.49818,0.85666 -0.60652,1.17843 -0.0306,0.0911 -0.0595,0.17552 -0.0859,0.25551 -0.57798,0.42014 -1.21282,0.93131 -1.53158,1.35359 -0.0754,0.0994 -0.18869,0.45612 -0.41159,1.18966 l -0.10047,0.32881 -0.052,0.18433 c -0.14682,0.5396 -0.26245,0.83243 -0.34369,0.87128 -0.0558,0.0131 -0.10709,0.0198 -0.15626,0.0238 l 3.7e-4,-7.3e-4 c 0,10e-6 -0.0257,-0.16499 -0.3036,-0.15216 -0.0649,0.003 -0.11903,0.0245 -0.16108,0.0486 -0.0239,-0.0152 -0.0463,-0.0308 -0.0656,-0.0467 l -0.0228,-0.0184 c -0.0139,-0.011 -0.0276,-0.0226 -0.0413,-0.0342 0.16267,-0.14733 0.2801,-0.33816 0.2801,-0.33816 0,0 -0.062,-0.16908 -0.27404,-0.20686 -0.15251,-0.0264 -0.27117,0.0821 -0.27117,0.0821 0,0 0.002,0.0527 -0.0196,0.12874 -0.0642,-0.12401 -0.0939,-0.26824 -0.0611,-0.43751 0.21505,-0.11091 0.40072,-0.31163 0.40072,-0.31163 0,1e-5 -0.005,-0.15893 -0.22593,-0.27046 -0.0834,-0.0424 -0.16855,-0.0178 -0.22414,0.009 -0.0278,-0.16375 0.0641,-0.39502 0.23446,-0.55074 l 0.59849,-0.49497 0.013,-0.0294 c 0.1903,-0.42851 0.41373,-0.83066 0.5438,-0.97817 0.049,-0.0558 0.22664,-0.35885 0.72161,-1.2107 0.65656,-1.12981 1.64881,-2.83725 1.90395,-3.12143 0.0984,-0.0919 0.77489,0.0659 1.44322,0.33248 -0.23876,0.66012 -0.0314,1.06386 -0.12259,1.6317 z"
         id="path3106"
         style="fill:#f60;fill-opacity:1;fill-rule:nonzero;stroke:none" /><path
         d="m 171.96144,712.42723 c -0.12187,0.4449 -0.32784,0.62834 -0.64178,0.79494 -0.89727,0.47606 -2.12846,0.12213 -3.21211,-0.24704 -0.92259,-0.31449 -1.17702,-0.39432 -2.13701,-0.5413 -0.97817,-0.15021 -3.3447,-0.42477 -4.18566,0.27065 -0.16857,0.13932 -0.31502,0.40731 -0.3332,0.61129 -0.0271,0.33516 0.1144,0.73471 0.26335,0.8973 0.25764,0.28213 0.75153,0.40801 1.60178,0.40801 0,0 1.27572,-0.02 1.98057,-0.0312 l 0.14861,0.1339 -0.14503,0.1551 c -0.88162,0.0576 -1.57578,0.0895 -1.97774,0.0895 -1.0302,0 -1.61353,-0.15609 -1.95028,-0.52188 -0.27439,-0.29827 -0.39305,-0.6906 -0.35315,-1.16615 0.0303,-0.35582 0.18994,-0.65533 0.47466,-0.89015 0.88445,-0.73195 3.47796,-0.56108 4.59509,-0.36348 1.08865,0.19208 1.41257,0.27564 2.03761,0.48285 l 0.0363,0.0123 c 0.578,0.19333 2.11421,0.70682 2.85007,0.31608 0.19849,-0.10494 0.33141,-0.28774 0.40554,-0.55875 0.0909,-0.33016 0.046,-0.59955 -0.13721,-0.82369 -0.65496,-0.80072 -2.76205,-0.91422 -3.89381,-0.97515 l -0.0246,-10e-4 -0.0196,0.005 c -0.007,0.002 -0.66386,0.16232 -1.52373,0.16731 -0.547,0.003 -1.00954,-0.0319 -1.49916,-0.0689 -0.91653,-0.0693 -1.86405,-0.14111 -3.4416,0.0394 -0.70094,0.0802 -1.36161,0.20794 -1.87867,0.356 -0.0326,-0.21168 -0.11724,-0.45167 -0.22201,-0.76293 -0.10832,-0.32178 -0.47269,-0.88909 -0.60686,-1.17845 -0.15233,-0.3282 -0.22377,-0.61149 -0.1461,-1.02628 -0.4148,0.0517 -0.73532,0.17569 -0.9126,0.44187 -0.12437,-0.77897 0.31572,-1.24686 -0.6099,-2.4955 -0.0925,0.37772 -0.61132,0.49604 -0.5657,0.92402 -0.16284,-0.44472 0.0987,-0.70273 -0.27261,-1.4393 -0.0935,-0.18529 -0.61255,-0.95038 -0.89371,-1.17344 -0.11403,-0.53008 -0.3143,-1.42381 -0.52062,-2.15948 -0.28152,-1.00329 -0.51137,-1.45782 -0.62327,-1.63955 l -0.0378,-0.0611 -0.0716,-0.004 c -0.29772,-0.0159 -0.9983,-0.0412 -1.22013,-0.0314 -0.30823,0.0148 -0.54948,-0.0322 -0.70947,-0.13452 0.0146,-0.0768 0.023,-0.18548 -0.0235,-0.26512 -0.0556,-0.0953 -0.13307,-0.13702 -0.17371,-0.1534 0.007,-0.0164 0.0155,-0.0346 0.0258,-0.0556 0.19956,0.0568 0.40089,0.0613 0.40089,0.0613 0,0 0.083,-0.16765 -0.003,-0.37059 -0.0347,-0.0823 -0.0834,-0.12312 -0.11883,-0.14342 0.0194,-0.0276 0.039,-0.0549 0.0591,-0.0821 0.2115,0.0936 0.45844,0.11812 0.45844,0.11812 0,10e-6 0.0962,-0.12488 0.0335,-0.38236 -0.0196,-0.0802 -0.0627,-0.12027 -0.0993,-0.14092 0.27886,-0.087 1.06209,0.12114 1.50218,0.23839 0,0 0.55662,0.13702 0.5568,0.13702 0.30254,0.0565 0.47198,0.16267 0.604,0.37951 0.0269,0.044 0.0714,0.17782 0.11066,0.29594 0,0 0.052,0.15466 0.0524,0.15537 0.12365,0.34886 0.22627,0.5853 0.47609,0.98549 0.56979,0.91135 2.25425,3.66609 2.32249,3.88738 0.002,0.0114 0.003,0.0253 0.003,0.0415 0,0.14558 -0.0713,0.46771 -0.12864,0.67262 l -0.0363,0.13024 c 0,0 5.45426,1.59483 5.76999,1.68713 -0.11011,0.19011 -0.33568,0.58014 -0.33568,0.58014 l 0.19884,0.17942 c 0.0178,-0.0128 0.43688,-0.31734 0.66743,-0.54772 0.20205,-0.20257 0.39735,-0.51527 0.60402,-0.84614 l 0.10548,-0.16803 c 0.23341,-0.36988 0.4636,-0.64391 0.46574,-0.64676 l 0.009,-0.01 0.006,-0.011 c 0.002,-0.003 0.18423,-0.32037 0.75545,-0.95537 l 1.44428,-1.58076 -0.016,-0.07 c -0.002,-0.007 -0.17284,-0.74315 -0.47361,-1.56133 -0.19705,-0.53916 -0.49068,-1.11484 -0.60756,-1.33738 l -0.0363,-0.0684 -0.077,-0.004 c -0.27725,-0.0157 -0.94824,-0.0513 -1.19555,-0.0399 -0.30539,0.0146 -0.54344,-0.0328 -0.69808,-0.13629 0.021,-0.072 0.0406,-0.183 -0.002,-0.27012 -0.0474,-0.0966 -0.11653,-0.14966 -0.15608,-0.17407 0.006,-0.0125 0.0132,-0.0258 0.0207,-0.0399 0.18032,0.0604 0.35315,0.0777 0.35315,0.0777 0,0 0.0876,-0.14235 0.0592,-0.32321 -0.02,-0.12097 -0.0827,-0.17585 -0.12973,-0.20079 0.0175,-0.0243 0.0353,-0.0483 0.0531,-0.0722 0.21701,0.10493 0.48784,0.13202 0.48784,0.13202 0,0 0.0912,-0.1258 0.0602,-0.32 -0.0143,-0.0902 -0.0755,-0.15108 -0.124,-0.18655 0.28044,-0.0331 0.8424,0.12846 1.20373,0.23251 0,0 0.56625,0.14789 0.56659,0.14789 0.29256,0.0543 0.45649,0.15715 0.58478,0.36667 0.0552,0.0907 0.36595,0.80643 0.48356,1.09257 0.34209,0.83956 0.84704,1.90111 1.17416,2.46897 l 0.18174,0.28613 c 0.10726,0.16001 0.1999,0.29809 0.19135,0.39216 -0.0114,0.12793 -0.0182,0.1315 -0.13505,0.19064 -0.13612,0.0692 -0.34173,0.17355 -0.63573,0.51938 -0.47109,0.55413 -0.45541,1.61356 -0.44186,2.54824 l 0.001,0.70326 c -0.0242,0.92402 -0.1739,1.54068 -0.29506,1.89505 l -0.0567,0.16518 0.17391,0.0155 c 1.01025,0.0898 3.11162,0.27653 3.90093,1.24223 0.29862,0.36507 0.38307,0.82422 0.24481,1.32757 z"
         id="path3108"
         style="fill:#f60;fill-opacity:1;fill-rule:nonzero;stroke:none" /><path
         d="m 166.51789,723.27382 c 0.1183,-0.15454 0.21755,-0.32453 0.29184,-0.5076 -0.0959,-0.0127 -0.19279,-0.0216 -0.29184,-0.0216 -0.0992,0 -0.19636,0.008 -0.29221,0.0206 0.0745,0.18343 0.17354,0.35377 0.29221,0.50859 z"
         id="path3110"
         style="fill:white;fill-opacity:1;fill-rule:nonzero;stroke:none" /><path
         d="m 169.77276,724.82777 c 0.001,0.0351 0.005,0.0695 0.005,0.10486 0,1.79769 -1.46245,3.26023 -3.26021,3.26023 -1.79778,0 -3.26024,-1.46254 -3.26024,-3.26023 l 0.004,-0.1061 c -1.03322,-0.54762 -1.73933,-1.63306 -1.73933,-2.88152 0,-1.79768 1.46263,-3.26023 3.26023,-3.26023 0.62004,0 1.21745,0.17524 1.73773,0.50388 0.50281,-0.31732 1.09612,-0.50388 1.73327,-0.50388 1.79778,0 3.26022,1.46255 3.26022,3.26023 0,1.20464 -0.68008,2.32197 -1.74075,2.88276 z m -3.50717,-3.13691 0.2523,-0.0185 c 0.0852,0 0.16873,0.006 0.25228,0.0127 -0.0339,-0.26271 -0.11902,-0.5135 -0.25157,-0.7421 -0.13079,0.22549 -0.21845,0.47813 -0.25301,0.74781 z m 1.77318,0.36026 c 0.62129,0.32927 1.12143,0.85407 1.42362,1.49122 0.50119,-0.378 0.79661,-0.95991 0.79661,-1.59733 0,-1.10592 -0.89979,-2.0056 -2.00571,-2.0056 -0.2783,0 -0.54361,0.0573 -0.78485,0.16026 0.37542,0.54352 0.57407,1.17647 0.57407,1.84534 l -0.004,0.10611 z m -3.25648,3.15413 c -0.0855,0 -0.16944,-0.006 -0.25355,-0.0128 0.12598,0.99411 0.96321,1.74583 1.98915,1.74583 1.01951,0 1.86191,-0.76525 1.98752,-1.75127 l -0.25212,0.0183 c -0.61755,0 -1.21265,-0.17389 -1.73185,-0.50022 -0.50779,0.31954 -1.10539,0.50022 -1.73915,0.50022 z m 3.471,-1.25463 0.011,-7.3e-4 c -0.13505,-0.23876 -0.3175,-0.44615 -0.53451,-0.6115 -0.0748,0.15884 -0.16035,0.3102 -0.25729,0.45213 0.24588,0.10378 0.51171,0.16008 0.78076,0.16008 z m -4.68134,-0.41014 c 0.30112,-0.63795 0.79857,-1.15752 1.42539,-1.48864 -0.001,-0.0356 -0.004,-0.0709 -0.004,-0.10683 0,-0.68392 0.21274,-1.31866 0.57407,-1.84348 -0.24694,-0.10504 -0.51402,-0.16212 -0.78485,-0.16212 -1.10592,0 -2.00553,0.89968 -2.00553,2.0056 0,0.65105 0.31305,1.22887 0.79519,1.59547 z m 1.73346,-0.20393 c -0.21755,0.16598 -0.4,0.37578 -0.53434,0.61345 0.004,9e-5 0.007,5.5e-4 0.0112,5.5e-4 0.27652,0 0.542,-0.0568 0.78521,-0.15973 -0.10049,-0.1454 -0.18743,-0.29719 -0.26209,-0.45434 z"
         id="path3112"
         style="fill:#f60;fill-opacity:1;fill-rule:nonzero;stroke:none" /><path
         d="m 167.13686,721.71836 c 0.18405,0.0358 0.36133,0.0891 0.53274,0.15457 -0.0111,-0.58618 -0.19351,-1.13932 -0.53007,-1.61361 -0.14735,0.0981 -0.27991,0.21585 -0.39643,0.34833 0.22431,0.33237 0.35884,0.71117 0.39376,1.11071 z"
         id="path3114"
         style="fill:white;fill-opacity:1;fill-rule:nonzero;stroke:none" /><path
         d="m 166.51733,727.80924 c 1.59662,0 2.89534,-1.29888 2.89534,-2.89531 0,-1.59645 -1.29872,-2.89533 -2.89534,-2.89533 l -0.26564,0.0194 c 0.01,0.17764 0.0413,0.35091 0.0959,0.51661 l 0.16978,-0.0112 c 1.3071,0 2.37043,1.06342 2.37043,2.37052 0,1.30708 -1.06333,2.37051 -2.37043,2.37051 -1.24488,0 -2.25228,-0.93728 -2.35847,-2.1592 -0.18424,-0.0358 -0.36205,-0.0891 -0.53399,-0.15466 0.0307,1.57017 1.3151,2.83866 2.89246,2.83866 z"
         id="path3116"
         style="fill:white;fill-opacity:1;fill-rule:nonzero;stroke:none" /><path
         d="m 168.25276,724.82162 0.26459,-0.0191 c -0.01,-0.1795 -0.0424,-0.35277 -0.0966,-0.5167 l -0.16802,0.011 c -0.35046,0 -0.69524,-0.0822 -1.00971,-0.23075 -0.12241,0.14129 -0.25514,0.27181 -0.39858,0.38903 0.42923,0.23966 0.91064,0.36651 1.40829,0.36651 z"
         id="path3118"
         style="fill:white;fill-opacity:1;fill-rule:nonzero;stroke:none" /><path
         d="m 164.78176,719.03099 c -1.59643,0 -2.89533,1.29888 -2.89533,2.89532 0,1.59643 1.2989,2.89531 2.89533,2.89531 1.14851,0 2.16552,-0.6619 2.63518,-1.69771 -0.15554,-0.0785 -0.3216,-0.13907 -0.49692,-0.17488 -0.39287,0.82316 -1.21621,1.3478 -2.13826,1.3478 -1.30709,0 -2.37042,-1.06343 -2.37042,-2.37052 0,-1.3071 1.06333,-2.37053 2.37042,-2.37053 0.35242,0 0.69915,0.0831 1.01504,0.23324 0.12207,-0.14022 0.25427,-0.27127 0.39859,-0.38886 -0.43047,-0.24152 -0.91404,-0.36917 -1.41363,-0.36917 z"
         id="path3120"
         style="fill:white;fill-opacity:1;fill-rule:nonzero;stroke:none" /><path
         d="m 164.37979,723.89139 c 0.17657,-0.36775 0.44846,-0.68759 0.78326,-0.92171 -0.0591,-0.1755 -0.10263,-0.35625 -0.13096,-0.54101 -0.50619,0.30244 -0.90423,0.75047 -1.14851,1.28827 0.15519,0.0783 0.32124,0.13863 0.49621,0.17445 z"
         id="path3122"
         style="fill:white;fill-opacity:1;fill-rule:nonzero;stroke:none" /><path
         d="m 168.25276,719.03099 c -1.59662,0 -2.89533,1.29888 -2.89533,2.89532 0,0.60783 0.18548,1.182 0.53417,1.67233 0.14664,-0.0973 0.27974,-0.21444 0.3968,-0.34797 -0.2653,-0.39162 -0.40606,-0.84605 -0.40606,-1.32436 0,-1.3071 1.06333,-2.37053 2.37042,-2.37053 1.30727,0 2.3706,1.06343 2.3706,2.37053 0,0.78592 -0.38094,1.49915 -1.02057,1.94298 0.0595,0.17488 0.10297,0.35634 0.1322,0.54299 0.86556,-0.51839 1.4131,-1.46726 1.4131,-2.48597 0,-1.59644 -1.29872,-2.89532 -2.89533,-2.89532 z"
         id="path3124"
         style="fill:white;fill-opacity:1;fill-rule:nonzero;stroke:none" /></g></g></svg>